<?xml version="1.0" encoding="UTF-8"?>
<!DOCTYPE svg PUBLIC "-//W3C//DTD SVG 1.0//EN" "http://www.w3.org/TR/2001/REC-SVG-20010904/DTD/svg10.dtd">
<!-- Creator: CorelDRAW 2018 (64-Bit Evaluation Version) -->
<svg xmlns="http://www.w3.org/2000/svg" xml:space="preserve" width="122.67mm" height="45.2433mm" version="1.0" style="shape-rendering:geometricPrecision; text-rendering:geometricPrecision; image-rendering:optimizeQuality; fill-rule:evenodd; clip-rule:evenodd"
viewBox="0 0 12266.98 4524.33"
 xmlns:xlink="http://www.w3.org/1999/xlink">
 <defs>
  <style type="text/css">
   <![CDATA[
    .fil4 {fill:#2B2A29}
    .fil3 {fill:#E84F28}
    .fil2 {fill:#E31E24}
    .fil1 {fill:#434242;fill-rule:nonzero}
    .fil0 {fill:#2B2A29;fill-rule:nonzero}
    .fil5 {fill:#009846;fill-rule:nonzero}
   ]]>
  </style>
 </defs>
 <g id="Layer_x0020_1">
  <metadata id="CorelCorpID_0Corel-Layer"/>
  <path class="fil0" d="M3643.43 0l2458.7 0 0 331.68 -1192.96 0 0 2272.89 -374.25 0 0 -2272.89 -891.49 0 0 -331.68zm1822.5 892.14l0 392.67 19.07 -29.86c167.16,-261.92 327.24,-362.81 491.18,-362.81 127.71,0 261.15,31.13 400.3,160.11l-178.55 297.37c-118.19,-111.18 -227.47,-167.1 -327.87,-167.1 -109.29,0 -203.96,52.1 -284.03,156.31 -80.06,104.21 -120.1,227.48 -120.1,370.45l0 895.29 -340.57 0 0 -1712.43 340.57 0zm1734.83 1712.43l0 -217.95c-72.44,78.17 -154.41,139.15 -246.54,182.37 -92.77,43.83 -184.91,65.44 -277.05,65.44 -107.38,0 -207.14,-27.31 -298.64,-81.33 -90.86,-54.01 -160.12,-127.09 -206.51,-219.22 -46.38,-92.77 -69.89,-245.9 -69.89,-460.68l0 -981.06 338.67 0 0 977.26c0,179.81 26.05,305.63 77.52,376.8 51.47,71.16 141.7,106.75 270.69,106.75 161.39,0 298.64,-78.8 411.75,-236.38l0 -1224.43 338.67 0 0 1712.43 -338.67 0zm345.8 -1712.43l0 217.31c151.23,-167.13 323.43,-217.31 515.95,-217.31 106.75,0 205.8,-6.22 297.38,48.92 92.05,55.42 162.03,130.9 209.69,227.47 47.65,95.95 71.8,248.44 71.8,456.86l0 979.18 -338.68 0 0 -975.37c0,-175.36 -26.68,-299.9 -80.05,-374.88 -53.39,-75.62 -142.98,-113.11 -268.15,-113.11 -160.13,0 -296.1,80.06 -407.94,240.19l0 1223.17 -346.29 0 0 -1712.43 346.29 0zm1940.06 1742.29l-8.89 31.78c66.71,15.88 119.45,47.02 156.94,92.77 38.13,45.75 56.55,97.85 56.55,156.31 0,94.67 -37.49,174.75 -113.1,241.45 -75.61,66.09 -196.98,99.13 -363.45,99.13 -45.76,0 -85.78,-2.54 -120.73,-8.9l0 -210.32c63.53,4.45 102.93,6.99 119.45,6.99 70.53,0 125.82,-13.35 165.22,-40.67 23.5,-15.88 35.58,-37.48 35.58,-63.55 0,-29.85 -12.71,-54.64 -38.13,-74.33 -25.42,-19.71 -72.43,-29.86 -140.42,-29.86 -13.99,0 -27.97,1.9 -43.21,5.71l81.96 -228.74c-161.39,-36.21 -308.81,-120.74 -442.88,-254.16 -134.07,-133.45 -200.79,-333.61 -200.79,-600.48 0,-269.41 77.69,-486.59 232.56,-651.29 155.2,-165.05 359.01,-214.13 612.54,-214.13 228.05,0 273.11,-14.32 496.89,85.14l0 361.55c-171.56,-109.3 -330.42,-163.94 -476.55,-163.94 -152.51,0 -278.32,53.37 -376.18,160.75 -97.85,107.4 -146.77,244.64 -146.77,410.49 0,175.37 52.74,314.52 158.85,417.45 106.11,102.95 249.08,154.41 428.9,154.41 130.26,0 280.22,-38.12 448.61,-113.72l0 334.85c-169.66,63.53 -336.14,95.31 -498.81,95.31l-24.14 0z"/>
  <path class="fil1" d="M9995.1 1483.69c0,-182.34 66.72,-326.59 200.15,-432.72 133.44,-106.1 315.8,-158.83 546.46,-158.83l705.31 0 0 264.33 -346.31 0c67.36,67.98 113.75,130.26 139.8,186.16 26.05,55.92 39.39,119.46 39.39,191.27 0,89.59 -25.42,177.28 -76.25,263.69 -50.83,86.42 -116.91,152.5 -196.34,198.26 -80.06,45.74 -211.59,82.59 -393.95,109.92 -127.72,18.42 -191.9,62.28 -191.9,132.16 0,39.4 24.15,72.44 71.8,97.86 47.66,25.4 134.08,51.47 259.88,78.8 209.69,45.74 344.41,81.96 404.77,108 60.36,26.07 114.37,63.55 162.66,111.84 81.96,81.97 123.27,184.9 123.27,308.8 0,162.67 -72.44,292.31 -217.31,389.52 -144.24,96.59 -338.05,144.87 -579.5,144.87 -244.63,0 -439.7,-48.92 -585.85,-146.13 -145.5,-97.23 -218.58,-228.12 -218.58,-392.07 0,-231.92 143.61,-381.23 430.18,-448.59 -114.38,-73.07 -171.56,-145.5 -171.56,-217.31 0,-54.64 24.78,-104.85 73.7,-149.33 48.93,-44.47 115.01,-77.51 198.26,-98.48 -252.27,-111.84 -378.08,-292.29 -378.08,-542.02zm636.68 -297.37c-91.49,0 -169.66,30.51 -234.46,92.77 -64.82,62.28 -96.59,136.63 -96.59,223.68 0,87.68 31.77,160.75 94.68,218.57 63.54,57.82 143.6,86.43 240.18,86.43 95.32,0 5.34,-29.1 69.36,-88.34 63.69,-58.94 95.32,-132.79 95.32,-220.47 0,-89.61 -31.78,-163.95 -96.58,-223.68 -64.82,-59.72 25.31,-88.96 -71.91,-88.96zm-80.06 1498.32c-113.74,0 -207.15,24.13 -280.22,72.43 -72.43,48.29 -108.64,110.56 -108.64,186.16 0,176.67 158.84,264.34 476.55,264.34 149.95,0 266.24,-21.6 348.83,-66.07 82.61,-43.85 123.91,-106.13 123.91,-186.81 0,-79.43 -52.09,-144.25 -156.3,-194.45 -104.21,-50.19 -238.92,-75.6 -404.13,-75.6zm1020.62 -2513.08c55.92,0 103.57,19.08 143.61,57.83 39.39,38.13 59.72,85.14 59.72,141.07 0,54.63 -20.33,102.29 -59.72,141.68 -40.04,40.04 -87.69,59.74 -143.61,59.74 -52.11,0 -97.85,-20.33 -137.25,-60.36 -40.03,-40.68 -59.72,-87.69 -59.72,-141.06 0,-52.11 19.69,-97.85 59.72,-138.53 39.4,-40.03 85.14,-60.37 137.25,-60.37zm-167.11 720.58l338.67 0 0 1712.43 -338.67 0 0 -1712.43zm523.09 -888.31l338.66 0 0 2600.74 -338.66 0 0 -2600.74z"/>
  <g id="_3100229502368">
   <path class="fil2" d="M2054.32 2676.45c-270.14,-571.09 -536.7,-1134.61 -806.84,-1705.71 -599.34,-852.34 -1652.83,113.11 -1084.46,835.65 526.07,414.69 960.34,775.51 1486.41,1190.2 267.73,-49.31 376.5,-178.84 404.89,-320.14z"/>
   <path class="fil2" d="M2500.33 2536.86c-50.84,-473.67 -208.33,-1410.26 -227.74,-1762.66 -81.83,-1195.38 -1418.99,-816.23 -917.08,230.5 260.06,522.45 457.74,1097.58 749.41,1655.92 162.41,42.98 362.9,-30.57 395.41,-123.76z"/>
   <path class="fil3" d="M2874.35 2587.48c109.85,-463.06 288.3,-1119.18 385.81,-1458.27 86.67,-800.19 -792.92,-1149.34 -889.82,-656.8 -17.55,184.46 6.08,463.7 42.86,786.59 44.4,389.71 107.23,834.04 140.6,1261.12 89.77,121.17 251.86,132.69 320.55,67.36z"/>
   <path class="fil3" d="M3178.71 2847.37l543.5 -782.68c241.54,-417.51 -134.94,-1403.54 -347.69,-833.7 -16.85,30.8 -374.18,1140.46 -449.7,1362.77 4.38,224.16 187.72,292.33 253.89,253.61z"/>
   <path class="fil4" d="M2095.11 2697.77c177.34,24.07 366.42,-5.9 432.61,-147.44 106.09,141.23 291.73,141.17 364.91,58.72 -3.64,174.09 81.02,273.79 244.05,298.85 -75.8,116.37 -210.84,254.97 -280.21,32.87 -73.68,374.33 -147.36,624.76 -221.04,999.1 -80.28,39.92 -139.36,46.78 -220.55,0 -42.75,-348.52 -85.5,-573.12 -128.25,-921.64 -137.83,255.69 -345.75,239.08 -595.77,11.54 67.78,-31.43 333.07,-42.35 404.25,-332z"/>
  </g>
  <path class="fil5" d="M4324.87 4524.33l163.26 -1110.7 -169.22 0 31.46 -202.66 166.9 0c27.16,-148.69 82.46,-261.29 165.58,-338.11 83.12,-76.5 191.41,-114.92 325.53,-114.92 109.28,0 198.03,29.81 266.58,89.09 68.55,59.27 102.99,134.78 102.99,226.84 0,11.59 0,21.19 -0.33,28.81 -0.34,7.28 -1,13.58 -1.66,18.87l-257.97 1 0 -10.6c0,-40.4 -11.59,-71.53 -34.44,-94.05 -23.18,-22.19 -54.64,-33.44 -94.71,-33.44 -52.33,0 -95.38,19.2 -129.15,57.95 -33.45,38.74 -56.3,95.04 -67.89,168.56l184.45 0 -29.14 202.66 -185.45 0 -162.93 1110.7 -273.86 0zm641.78 -393.41l134.78 -919.95 258.97 0 -132.8 919.95 -260.95 0zm365.33 0l136.77 -919.95 264.92 0 -16.55 102.99c51.33,-41.07 101.33,-71.53 151,-91.4 49.35,-19.54 101.34,-29.48 155.65,-29.48 78.15,0 139.41,22.52 183.46,67.23 44.37,45.04 66.56,106.63 66.56,184.78 0,18.22 -0.66,35.77 -1.99,52.99 -1.32,17.22 -3.31,33.45 -5.63,49.01l-87.42 583.83 -270.23 0 83.46 -555.68c2.31,-17.55 4.3,-33.45 5.63,-47.69 1.32,-14.24 1.98,-25.5 1.98,-33.78 0,-30.46 -7.28,-54.64 -21.85,-72.85 -14.57,-18.21 -33.78,-27.15 -57.62,-27.15 -35.77,0 -73.52,11.59 -113.26,34.77 -39.74,23.51 -79.81,57.62 -120.54,102.99l-89.41 599.39 -264.93 0zm1560.47 -263.6l63.25 -435.8c-5.96,-0.67 -12.58,-1.33 -19.87,-1.66 -7.61,-0.33 -18.54,-0.33 -33.44,-0.33 -107.63,0 -192.41,31.13 -255.33,93.06 -62.58,62.25 -94.04,145.7 -94.04,250.68 0,51.66 12.25,92.39 36.42,122.2 24.18,29.8 56.96,44.7 98.36,44.7 33.11,0 66.56,-5.96 100.34,-17.88 34.11,-11.92 68.88,-30.47 104.31,-54.97zm-39.74 263.6l9.94 -71.53c-44.71,31.13 -87.76,53.65 -128.82,67.89 -41.07,14.24 -83.12,21.52 -125.51,21.52 -98.02,0 -175.51,-34.11 -233.13,-102.32 -57.63,-68.22 -86.44,-160.62 -86.44,-277.18 0,-81.8 15.57,-157.96 47.03,-228.83 31.46,-70.87 76.49,-131.14 135.44,-181.15 63.25,-53.64 137.76,-91.73 222.87,-114.24 85.11,-22.85 221.21,-34.11 408.98,-34.11l151.34 0 -134.78 919.95 -266.92 0zm363.67 0l136.77 -919.95 264.92 0 -16.55 102.99c51.33,-41.07 101.33,-71.53 151,-91.4 49.35,-19.54 101.34,-29.48 155.65,-29.48 78.15,0 139.41,22.52 183.46,67.23 44.37,45.04 66.56,106.63 66.56,184.78 0,18.22 -0.66,35.77 -1.99,52.99 -1.32,17.22 -3.31,33.45 -5.63,49.01l-87.42 583.83 -270.23 0 83.46 -555.68c2.31,-17.55 4.3,-33.45 5.63,-47.69 1.32,-14.24 1.98,-25.5 1.98,-33.78 0,-30.46 -7.28,-54.64 -21.85,-72.85 -14.57,-18.21 -33.78,-27.15 -57.62,-27.15 -35.77,0 -73.52,11.59 -113.26,34.77 -39.74,23.51 -79.81,57.62 -120.54,102.99l-89.41 599.39 -264.93 0zm905.11 -65.57l30.14 -208.63 9.6 3.98c127.17,47.68 217.9,71.53 272.21,71.53 21.2,0 39.08,-5.3 53.65,-15.9 14.57,-10.6 21.86,-23.84 21.86,-39.41 0,-27.15 -27.82,-61.26 -83.12,-102.66 -33.12,-24.5 -58.95,-45.36 -77.49,-61.92 -58.95,-53.32 -98.36,-97.03 -118.89,-131.47 -20.2,-34.77 -30.47,-72.52 -30.47,-113.26 0,-80.8 30.8,-146.7 92.73,-198.03 61.59,-51 141.4,-76.5 239.09,-76.5 47.03,0 94.38,6.63 141.74,19.54 47.02,12.92 96.03,32.12 146.37,58.29l-15.57 218.23c-54.31,-26.49 -103.32,-47.03 -147.36,-61.6 -44.04,-14.57 -79.15,-21.85 -104.98,-21.85 -19.87,0 -36.76,4.63 -50,13.57 -13.25,8.95 -19.87,20.54 -19.87,34.78 0,27.81 32.12,65.9 96.03,113.58 33.12,25.17 58.62,45.7 76.83,61.27 49.01,40.73 83.12,77.82 101.34,111.6 18.54,33.44 27.81,72.19 27.81,116.23 0,84.12 -31.46,153.99 -94.71,209.29 -62.92,55.31 -143.39,82.79 -241.08,82.79 -51.66,0 -104.98,-6.95 -160.28,-20.86 -55.3,-13.91 -110.61,-34.77 -165.58,-62.59z"/>
 </g>
</svg>
